<svg xmlns="http://www.w3.org/2000/svg" viewBox="0 0 1200 110" width="1200" height="110" role="img" aria-label="Tools I use">
  <style>
    .chip { animation: rise .7s ease-out both; }
    @keyframes rise { from { opacity: 0; transform: translateY(14px); } to { opacity: 1; transform: translateY(0); } }
  </style>
  <g transform="translate(26,29)"><g transform="translate(0,0)"><g class="chip" style="animation-delay:0.00s"><rect width="89" height="52" rx="26" fill="#FFF1DC"/><circle cx="26" cy="26" r="7" fill="#EE7B5C"/><text x="42" y="33" font-family="'Segoe UI', 'Helvetica Neue', Arial, sans-serif" font-size="18" font-weight="600" fill="#0F2A43">React</text></g></g><g transform="translate(105,0)"><g class="chip" style="animation-delay:0.12s"><rect width="78" height="52" rx="26" fill="#FFF1DC"/><circle cx="26" cy="26" r="7" fill="#3E9C9B"/><text x="42" y="33" font-family="'Segoe UI', 'Helvetica Neue', Arial, sans-serif" font-size="18" font-weight="600" fill="#0F2A43">Vite</text></g></g><g transform="translate(199,0)"><g class="chip" style="animation-delay:0.24s"><rect width="100" height="52" rx="26" fill="#FFF1DC"/><circle cx="26" cy="26" r="7" fill="#F7C873"/><text x="42" y="33" font-family="'Segoe UI', 'Helvetica Neue', Arial, sans-serif" font-size="18" font-weight="600" fill="#0F2A43">motion</text></g></g><g transform="translate(315,0)"><g class="chip" style="animation-delay:0.36s"><rect width="122" height="52" rx="26" fill="#FFF1DC"/><circle cx="26" cy="26" r="7" fill="#EE7B5C"/><text x="42" y="33" font-family="'Segoe UI', 'Helvetica Neue', Arial, sans-serif" font-size="18" font-weight="600" fill="#0F2A43">Three.js</text></g></g><g transform="translate(453,0)"><g class="chip" style="animation-delay:0.48s"><rect width="188" height="52" rx="26" fill="#FFF1DC"/><circle cx="26" cy="26" r="7" fill="#3E9C9B"/><text x="42" y="33" font-family="'Segoe UI', 'Helvetica Neue', Arial, sans-serif" font-size="18" font-weight="600" fill="#0F2A43">ShaderGradient</text></g></g><g transform="translate(657,0)"><g class="chip" style="animation-delay:0.60s"><rect width="122" height="52" rx="26" fill="#FFF1DC"/><circle cx="26" cy="26" r="7" fill="#F7C873"/><text x="42" y="33" font-family="'Segoe UI', 'Helvetica Neue', Arial, sans-serif" font-size="18" font-weight="600" fill="#0F2A43">Remotion</text></g></g><g transform="translate(795,0)"><g class="chip" style="animation-delay:0.72s"><rect width="122" height="52" rx="26" fill="#FFF1DC"/><circle cx="26" cy="26" r="7" fill="#EE7B5C"/><text x="42" y="33" font-family="'Segoe UI', 'Helvetica Neue', Arial, sans-serif" font-size="18" font-weight="600" fill="#0F2A43">anime.js</text></g></g><g transform="translate(933,0)"><g class="chip" style="animation-delay:0.84s"><rect width="100" height="52" rx="26" fill="#FFF1DC"/><circle cx="26" cy="26" r="7" fill="#3E9C9B"/><text x="42" y="33" font-family="'Segoe UI', 'Helvetica Neue', Arial, sans-serif" font-size="18" font-weight="600" fill="#0F2A43">Python</text></g></g><g transform="translate(1049,0)"><g class="chip" style="animation-delay:0.96s"><rect width="100" height="52" rx="26" fill="#FFF1DC"/><circle cx="26" cy="26" r="7" fill="#F7C873"/><text x="42" y="33" font-family="'Segoe UI', 'Helvetica Neue', Arial, sans-serif" font-size="18" font-weight="600" fill="#0F2A43">ffmpeg</text></g></g></g>
</svg>
